<svg xmlns="http://www.w3.org/2000/svg" xmlns:xlink="http://www.w3.org/1999/xlink" width="187" height="187" viewBox="0 0 187 187">
  <defs>
    <linearGradient id="linear-gradient" x1="-0.25" y1="0.5" x2="0.826" y2="-0.119" gradientUnits="objectBoundingBox">
      <stop offset="0" stop-color="#2bfb00"/>
      <stop offset="1" stop-color="#f2ffe0"/>
    </linearGradient>
    <filter id="Ellipse_7" x="0" y="0" width="187" height="187" filterUnits="userSpaceOnUse">
      <feOffset dy="19" input="SourceAlpha"/>
      <feGaussianBlur stdDeviation="20" result="blur"/>
      <feFlood flood-color="#78fd56" flood-opacity="0.388"/>
      <feComposite operator="in" in2="blur"/>
      <feComposite in="SourceGraphic"/>
    </filter>
  </defs>
  <g id="Group_13" data-name="Group 13" transform="translate(-647 -2758)">
    <g transform="matrix(1, 0, 0, 1, 647, 2758)" filter="url(#Ellipse_7)">
      <circle id="Ellipse_7-2" data-name="Ellipse 7" cx="33.5" cy="33.5" r="33.5" transform="translate(60 41)" fill="url(#linear-gradient)"/>
    </g>
    <path id="question-circle" d="M28.128,8A20.128,20.128,0,1,0,48.256,28.128,20.131,20.131,0,0,0,28.128,8Zm0,36.36A16.232,16.232,0,1,1,44.36,28.128,16.223,16.223,0,0,1,28.128,44.36Zm8.7-20.712c0,5.442-5.878,5.526-5.878,7.537V31.7a.974.974,0,0,1-.974.974h-3.7A.974.974,0,0,1,25.3,31.7V31c0-2.9,2.2-4.061,3.862-4.993,1.425-.8,2.3-1.342,2.3-2.4,0-1.4-1.785-2.329-3.229-2.329-1.882,0-2.751.891-3.972,2.432a.975.975,0,0,1-1.353.172L20.65,22.167a.976.976,0,0,1-.215-1.328,9.123,9.123,0,0,1,8.163-4.4C32.581,16.441,36.832,19.55,36.832,23.648Zm-5.3,13.57a3.409,3.409,0,1,1-3.409-3.409A3.413,3.413,0,0,1,31.537,37.218Z" transform="translate(712.872 2804.872)"/>
  </g>
</svg>
