<svg xmlns="http://www.w3.org/2000/svg" width="307" height="103" viewBox="0 0 307 103">
  <g id="Group_5" data-name="Group 5" transform="translate(-566 -1821.301)">
    <rect id="Rectangle_4" data-name="Rectangle 4" width="103" height="103" rx="22" transform="translate(566 1821.301)" fill="#2b2b2b"/>
    <path id="youtube" d="M66.271,69.768A6.588,6.588,0,0,0,61.635,65.1C57.546,64,41.15,64,41.15,64s-16.4,0-20.485,1.1a6.589,6.589,0,0,0-4.636,4.666c-1.1,4.116-1.1,12.7-1.1,12.7s0,8.587,1.1,12.7a6.49,6.49,0,0,0,4.636,4.591c4.089,1.1,20.485,1.1,20.485,1.1s16.4,0,20.485-1.1a6.49,6.49,0,0,0,4.636-4.591c1.1-4.116,1.1-12.7,1.1-12.7S67.367,73.884,66.271,69.768Zm-30.484,20.5V74.675l13.7,7.8-13.7,7.8Z" transform="translate(576.407 1790.969)" fill="red"/>
    <text id="Youtube-2" data-name="Youtube" transform="translate(706 1887.301)" fill="red" font-size="43" font-family="Gilroy-Black, Gilroy" font-weight="800"><tspan x="0" y="0">Youtube</tspan></text>
  </g>
</svg>
